<svg width="75" height="76" viewBox="0 0 75 76" fill="none" xmlns="http://www.w3.org/2000/svg">
<circle cx="37.5" cy="38.5" r="37.5" fill="url(#paint0_linear_1_5)"/>
<path d="M15.6705 23.3636H18.1023V31.4773C18.1023 32.2273 17.9337 32.8788 17.5966 33.4318C17.2633 33.9848 16.7992 34.411 16.2045 34.7102C15.6098 35.0095 14.9186 35.1591 14.1307 35.1591C13.4299 35.1591 12.7936 35.036 12.2216 34.7898C11.6534 34.5398 11.2027 34.161 10.8693 33.6534C10.536 33.142 10.3712 32.5 10.375 31.7273H12.8239C12.8314 32.0341 12.8939 32.2973 13.0114 32.517C13.1326 32.733 13.2973 32.8996 13.5057 33.017C13.7178 33.1307 13.9678 33.1875 14.2557 33.1875C14.5587 33.1875 14.8144 33.1231 15.0227 32.9943C15.2348 32.8617 15.3958 32.6686 15.5057 32.4148C15.6155 32.161 15.6705 31.8485 15.6705 31.4773V23.3636ZM24.0341 35.1705C23.1515 35.1705 22.3883 34.983 21.7443 34.608C21.1042 34.2292 20.6098 33.7027 20.2614 33.0284C19.9129 32.3504 19.7386 31.5644 19.7386 30.6705C19.7386 29.7689 19.9129 28.9811 20.2614 28.3068C20.6098 27.6288 21.1042 27.1023 21.7443 26.7273C22.3883 26.3485 23.1515 26.1591 24.0341 26.1591C24.9167 26.1591 25.678 26.3485 26.3182 26.7273C26.9621 27.1023 27.4583 27.6288 27.8068 28.3068C28.1553 28.9811 28.3295 29.7689 28.3295 30.6705C28.3295 31.5644 28.1553 32.3504 27.8068 33.0284C27.4583 33.7027 26.9621 34.2292 26.3182 34.608C25.678 34.983 24.9167 35.1705 24.0341 35.1705ZM24.0455 33.2955C24.447 33.2955 24.7822 33.1818 25.0511 32.9545C25.3201 32.7235 25.5227 32.4091 25.6591 32.0114C25.7992 31.6136 25.8693 31.161 25.8693 30.6534C25.8693 30.1458 25.7992 29.6932 25.6591 29.2955C25.5227 28.8977 25.3201 28.5833 25.0511 28.3523C24.7822 28.1212 24.447 28.0057 24.0455 28.0057C23.6402 28.0057 23.2992 28.1212 23.0227 28.3523C22.75 28.5833 22.5436 28.8977 22.4034 29.2955C22.267 29.6932 22.1989 30.1458 22.1989 30.6534C22.1989 31.161 22.267 31.6136 22.4034 32.0114C22.5436 32.4091 22.75 32.7235 23.0227 32.9545C23.2992 33.1818 23.6402 33.2955 24.0455 33.2955ZM29.9489 35V23.3636H32.3693V27.7386H32.4432C32.5492 27.5038 32.7027 27.2652 32.9034 27.0227C33.108 26.7765 33.3731 26.572 33.6989 26.4091C34.0284 26.2424 34.4375 26.1591 34.9261 26.1591C35.5625 26.1591 36.1496 26.3258 36.6875 26.6591C37.2254 26.9886 37.6553 27.4867 37.9773 28.1534C38.2992 28.8163 38.4602 29.6477 38.4602 30.6477C38.4602 31.6212 38.303 32.4432 37.9886 33.1136C37.678 33.7803 37.2538 34.286 36.7159 34.6307C36.1818 34.9716 35.5833 35.142 34.9205 35.142C34.4508 35.142 34.0511 35.0644 33.7216 34.9091C33.3958 34.7538 33.1288 34.5587 32.9205 34.3239C32.7121 34.0852 32.553 33.8447 32.4432 33.6023H32.3352V35H29.9489ZM32.3182 30.6364C32.3182 31.1553 32.3902 31.608 32.5341 31.9943C32.678 32.3807 32.8864 32.6818 33.1591 32.8977C33.4318 33.1098 33.7633 33.2159 34.1534 33.2159C34.5473 33.2159 34.8807 33.108 35.1534 32.892C35.4261 32.6723 35.6326 32.3693 35.7727 31.983C35.9167 31.5928 35.9886 31.1439 35.9886 30.6364C35.9886 30.1326 35.9186 29.6894 35.7784 29.3068C35.6383 28.9242 35.4318 28.625 35.1591 28.4091C34.8864 28.1932 34.5511 28.0852 34.1534 28.0852C33.7595 28.0852 33.4261 28.1894 33.1534 28.3977C32.8845 28.6061 32.678 28.9015 32.5341 29.2841C32.3902 29.6667 32.3182 30.1174 32.3182 30.6364ZM21.2784 46.4375H18.7898C18.7443 46.1155 18.6515 45.8295 18.5114 45.5795C18.3712 45.3258 18.1913 45.1098 17.9716 44.9318C17.7519 44.7538 17.4981 44.6174 17.2102 44.5227C16.9261 44.428 16.6174 44.3807 16.2841 44.3807C15.6818 44.3807 15.1572 44.5303 14.7102 44.8295C14.2633 45.125 13.9167 45.5568 13.6705 46.125C13.4242 46.6894 13.3011 47.375 13.3011 48.1818C13.3011 49.0114 13.4242 49.7083 13.6705 50.2727C13.9205 50.8371 14.2689 51.2633 14.7159 51.5511C15.1629 51.839 15.6799 51.983 16.267 51.983C16.5966 51.983 16.9015 51.9394 17.1818 51.8523C17.4659 51.7652 17.7178 51.6383 17.9375 51.4716C18.1572 51.3011 18.339 51.0947 18.483 50.8523C18.6307 50.6098 18.733 50.3333 18.7898 50.0227L21.2784 50.0341C21.214 50.5682 21.053 51.0833 20.7955 51.5795C20.5417 52.072 20.1989 52.5133 19.767 52.9034C19.339 53.2898 18.8277 53.5966 18.233 53.8239C17.642 54.0473 16.9735 54.1591 16.2273 54.1591C15.1894 54.1591 14.2614 53.9242 13.4432 53.4545C12.6288 52.9848 11.9848 52.3049 11.5114 51.4148C11.0417 50.5246 10.8068 49.447 10.8068 48.1818C10.8068 46.9129 11.0455 45.8333 11.5227 44.9432C12 44.053 12.6477 43.375 13.4659 42.9091C14.2841 42.4394 15.2045 42.2045 16.2273 42.2045C16.9015 42.2045 17.5265 42.2992 18.1023 42.4886C18.6818 42.678 19.1951 42.9545 19.642 43.3182C20.089 43.678 20.4527 44.1193 20.733 44.642C21.017 45.1648 21.1989 45.7633 21.2784 46.4375ZM25.4176 48.9545V54H22.9972V42.3636H25.3494V46.8125H25.4517C25.6487 46.2973 25.9669 45.8939 26.4062 45.6023C26.8456 45.3068 27.3968 45.1591 28.0597 45.1591C28.6657 45.1591 29.1941 45.2917 29.6449 45.5568C30.0994 45.8182 30.4517 46.1951 30.7017 46.6875C30.9555 47.1761 31.0805 47.7614 31.0767 48.4432V54H28.6562V48.875C28.66 48.3371 28.5237 47.9186 28.2472 47.6193C27.9744 47.3201 27.5919 47.1705 27.0994 47.1705C26.7699 47.1705 26.4782 47.2405 26.2244 47.3807C25.9744 47.5208 25.7775 47.7254 25.6335 47.9943C25.4934 48.2595 25.4214 48.5795 25.4176 48.9545ZM35.4702 54.1648C34.9134 54.1648 34.4171 54.0682 33.9815 53.875C33.5459 53.678 33.2012 53.3883 32.9474 53.0057C32.6974 52.6193 32.5724 52.1383 32.5724 51.5625C32.5724 51.0777 32.6615 50.6705 32.8395 50.3409C33.0175 50.0114 33.2599 49.7462 33.5668 49.5455C33.8736 49.3447 34.2221 49.1932 34.6122 49.0909C35.0062 48.9886 35.419 48.9167 35.8509 48.875C36.3584 48.822 36.7675 48.7727 37.0781 48.7273C37.3887 48.678 37.6141 48.6061 37.7543 48.5114C37.8944 48.4167 37.9645 48.2765 37.9645 48.0909V48.0568C37.9645 47.697 37.8509 47.4186 37.6236 47.2216C37.4001 47.0246 37.0819 46.9261 36.669 46.9261C36.2334 46.9261 35.8868 47.0227 35.6293 47.2159C35.3717 47.4053 35.2012 47.6439 35.1179 47.9318L32.8793 47.75C32.9929 47.2197 33.2164 46.7614 33.5497 46.375C33.883 45.9848 34.313 45.6856 34.8395 45.4773C35.3698 45.2652 35.9834 45.1591 36.6804 45.1591C37.1652 45.1591 37.6293 45.2159 38.0724 45.3295C38.5194 45.4432 38.9152 45.6193 39.2599 45.858C39.6084 46.0966 39.883 46.4034 40.0838 46.7784C40.2846 47.1496 40.3849 47.5947 40.3849 48.1136V54H38.0895V52.7898H38.0213C37.8812 53.0625 37.6937 53.303 37.4588 53.5114C37.224 53.7159 36.9418 53.8769 36.6122 53.9943C36.2827 54.108 35.902 54.1648 35.4702 54.1648ZM36.1634 52.4943C36.5194 52.4943 36.8338 52.4242 37.1065 52.2841C37.3793 52.1402 37.5933 51.947 37.7486 51.7045C37.9039 51.4621 37.9815 51.1875 37.9815 50.8807V49.9545C37.9058 50.0038 37.8016 50.0492 37.669 50.0909C37.5402 50.1288 37.3944 50.1648 37.2315 50.1989C37.0687 50.2292 36.9058 50.2576 36.7429 50.2841C36.58 50.3068 36.4323 50.3277 36.2997 50.3466C36.0156 50.3883 35.7675 50.4545 35.5554 50.5455C35.3433 50.6364 35.1785 50.7595 35.0611 50.9148C34.9437 51.0663 34.8849 51.2557 34.8849 51.483C34.8849 51.8125 35.0043 52.0644 35.2429 52.2386C35.4853 52.4091 35.7921 52.4943 36.1634 52.4943ZM49.5241 47.7614L47.3082 47.8977C47.2704 47.7083 47.1889 47.5379 47.0639 47.3864C46.9389 47.2311 46.7741 47.108 46.5696 47.017C46.3688 46.9223 46.1283 46.875 45.848 46.875C45.473 46.875 45.1567 46.9545 44.8991 47.1136C44.6416 47.2689 44.5128 47.4773 44.5128 47.7386C44.5128 47.947 44.5961 48.1231 44.7628 48.267C44.9295 48.411 45.2154 48.5265 45.6207 48.6136L47.2003 48.9318C48.0488 49.1061 48.6813 49.3864 49.098 49.7727C49.5147 50.1591 49.723 50.6667 49.723 51.2955C49.723 51.8674 49.5545 52.3693 49.2173 52.8011C48.884 53.233 48.4257 53.5701 47.8423 53.8125C47.2628 54.0511 46.5942 54.1705 45.8366 54.1705C44.6813 54.1705 43.7609 53.9299 43.0753 53.4489C42.3935 52.964 41.9938 52.3049 41.8764 51.4716L44.2571 51.3466C44.3291 51.6989 44.5033 51.9678 44.7798 52.1534C45.0563 52.3352 45.4105 52.4261 45.8423 52.4261C46.2666 52.4261 46.6075 52.3447 46.8651 52.1818C47.1264 52.0152 47.259 51.8011 47.2628 51.5398C47.259 51.3201 47.1662 51.1402 46.9844 51C46.8026 50.8561 46.5223 50.7462 46.1435 50.6705L44.6321 50.3693C43.7798 50.1989 43.1454 49.9034 42.7287 49.483C42.3158 49.0625 42.1094 48.5265 42.1094 47.875C42.1094 47.3144 42.2609 46.8314 42.5639 46.4261C42.8707 46.0208 43.3007 45.7083 43.8537 45.4886C44.4105 45.2689 45.062 45.1591 45.8082 45.1591C46.9105 45.1591 47.7779 45.392 48.4105 45.858C49.0469 46.3239 49.4181 46.9583 49.5241 47.7614ZM55.2244 54.1705C54.3267 54.1705 53.554 53.9886 52.9062 53.625C52.2623 53.2576 51.7661 52.7386 51.4176 52.0682C51.0691 51.3939 50.8949 50.5966 50.8949 49.6761C50.8949 48.7784 51.0691 47.9905 51.4176 47.3125C51.7661 46.6345 52.2566 46.1061 52.8892 45.7273C53.5256 45.3485 54.2718 45.1591 55.1278 45.1591C55.7036 45.1591 56.2396 45.2519 56.7358 45.4375C57.2358 45.6193 57.6714 45.8939 58.0426 46.2614C58.4176 46.6288 58.7093 47.0909 58.9176 47.6477C59.1259 48.2008 59.2301 48.8485 59.2301 49.5909V50.2557H51.8608V48.7557H56.9517C56.9517 48.4072 56.8759 48.0985 56.7244 47.8295C56.5729 47.5606 56.3627 47.3504 56.0938 47.1989C55.8286 47.0436 55.5199 46.9659 55.1676 46.9659C54.8002 46.9659 54.4744 47.0511 54.1903 47.2216C53.91 47.3883 53.6903 47.6136 53.5312 47.8977C53.3722 48.178 53.2907 48.4905 53.2869 48.8352V50.2614C53.2869 50.6932 53.3665 51.0663 53.5256 51.3807C53.6884 51.6951 53.9176 51.9375 54.2131 52.108C54.5085 52.2784 54.8589 52.3636 55.2642 52.3636C55.5331 52.3636 55.7794 52.3258 56.0028 52.25C56.2263 52.1742 56.4176 52.0606 56.5767 51.9091C56.7358 51.7576 56.857 51.572 56.9403 51.3523L59.179 51.5C59.0653 52.0379 58.8324 52.5076 58.4801 52.9091C58.1316 53.3068 57.6809 53.6174 57.1278 53.8409C56.5786 54.0606 55.9441 54.1705 55.2244 54.1705ZM60.8097 54V45.2727H63.1562V46.7955H63.2472C63.4063 46.2538 63.6733 45.8447 64.0483 45.5682C64.4233 45.2879 64.8551 45.1477 65.3438 45.1477C65.465 45.1477 65.5956 45.1553 65.7358 45.1705C65.8759 45.1856 65.9991 45.2064 66.1051 45.233V47.3807C65.9915 47.3466 65.8343 47.3163 65.6335 47.2898C65.4328 47.2633 65.2491 47.25 65.0824 47.25C64.7263 47.25 64.4081 47.3277 64.1278 47.483C63.8513 47.6345 63.6316 47.8466 63.4688 48.1193C63.3097 48.392 63.2301 48.7064 63.2301 49.0625V54H60.8097Z" fill="url(#paint1_linear_1_5)"/>
<ellipse cx="48.051" cy="15.9091" rx="24.6677" ry="4.79654" transform="rotate(26 48.051 15.9091)" fill="url(#paint2_linear_1_5)"/>
<defs>
<linearGradient id="paint0_linear_1_5" x1="37.5" y1="1" x2="37.5" y2="76" gradientUnits="userSpaceOnUse">
<stop stop-color="#676AB5"/>
<stop offset="1" stop-color="#21246B"/>
</linearGradient>
<linearGradient id="paint1_linear_1_5" x1="-1" y1="48" x2="66" y2="59" gradientUnits="userSpaceOnUse">
<stop stop-color="white"/>
<stop offset="1" stop-color="#D0DDE9"/>
</linearGradient>
<linearGradient id="paint2_linear_1_5" x1="23.3833" y1="15.9091" x2="72.7188" y2="15.9091" gradientUnits="userSpaceOnUse">
<stop stop-color="#090F93"/>
<stop offset="1" stop-color="#A6C6EA"/>
</linearGradient>
</defs>
</svg>
